<svg xmlns="http://www.w3.org/2000/svg" viewBox="0 0 1200 360" width="1200" height="360">
  <defs>
    <linearGradient id="bg3" x1="0%" y1="0%" x2="100%" y2="100%">
      <stop offset="0%" style="stop-color:#0d1117"/>
      <stop offset="100%" style="stop-color:#0a1929"/>
    </linearGradient>
    <filter id="glow3">
      <feGaussianBlur stdDeviation="3" result="blur"/>
      <feMerge><feMergeNode in="blur"/><feMergeNode in="SourceGraphic"/></feMerge>
    </filter>
  </defs>
  <rect width="1200" height="360" fill="url(#bg3)"/>
  <g opacity="0.04" stroke="#29b6f6" stroke-width="1">
    <line x1="0" y1="90" x2="1200" y2="90"/>
    <line x1="0" y1="180" x2="1200" y2="180"/>
    <line x1="0" y1="270" x2="1200" y2="270"/>
    <line x1="150" y1="0" x2="150" y2="360"/>
    <line x1="300" y1="0" x2="300" y2="360"/>
  </g>
  <g transform="translate(62, 110)" filter="url(#glow3)">
    <rect x="0" y="20" width="130" height="55" rx="6" fill="none" stroke="#29b6f6" stroke-width="2"/>
    <rect x="4" y="24" width="122" height="47" rx="4" fill="#0a1929"/>
    <circle cx="15" cy="35" r="4" fill="#4caf50"/>
    <circle cx="29" cy="35" r="4" fill="#4caf50"/>
    <circle cx="43" cy="35" r="4" fill="#ffb300"/>
    <circle cx="57" cy="35" r="4" fill="#4caf50"/>
    <rect x="10" y="48" width="16" height="12" rx="2" fill="#1e3a5f" stroke="#29b6f6" stroke-width="0.8"/>
    <rect x="30" y="48" width="16" height="12" rx="2" fill="#1e3a5f" stroke="#29b6f6" stroke-width="0.8"/>
    <rect x="50" y="48" width="16" height="12" rx="2" fill="#1e3a5f" stroke="#29b6f6" stroke-width="0.8"/>
    <rect x="70" y="48" width="16" height="12" rx="2" fill="#1e3a5f" stroke="#29b6f6" stroke-width="0.8"/>
    <line x1="100" y1="20" x2="95" y2="0" stroke="#29b6f6" stroke-width="2"/>
    <line x1="118" y1="20" x2="125" y2="0" stroke="#29b6f6" stroke-width="2"/>
    <circle cx="95" cy="0" r="3" fill="#29b6f6"/>
    <circle cx="125" cy="0" r="3" fill="#29b6f6"/>
  </g>
  <g transform="translate(200, 168)">
    <line x1="0" y1="0" x2="50" y2="0" stroke="#29b6f6" stroke-width="1.5" stroke-dasharray="5,3" opacity="0.7"/>
    <polygon points="50,0 42,-4 42,4" fill="#29b6f6" opacity="0.7"/>
  </g>
  <g transform="translate(258, 148)">
    <circle cx="25" cy="25" r="25" fill="#229ED9" opacity="0.9"/>
    <path d="M10 25 L38 13 L30 38 L22 31 L17 34 Z" fill="white" opacity="0.95"/>
    <path d="M22 31 L21 38 L26 33 Z" fill="#1a8cbf"/>
  </g>
  <text x="340" y="148" font-family="'Segoe UI', Arial, sans-serif" font-size="52" font-weight="800" fill="#ffffff" letter-spacing="-1">MikroTik</text>
  <text x="340" y="210" font-family="'Segoe UI', Arial, sans-serif" font-size="52" font-weight="800" fill="#29b6f6" letter-spacing="-1">Telegram Bot</text>
  <text x="342" y="252" font-family="'Segoe UI', Arial, sans-serif" font-size="21" fill="#8b949e">Monitor &amp; manage your RouterOS device from Telegram</text>
  <g transform="translate(342, 278)">
    <rect x="0" y="0" width="90" height="28" rx="14" fill="#3776ab" opacity="0.2"/>
    <text x="45" y="19" font-family="'Segoe UI', Arial, sans-serif" font-size="13" fill="#5b9bd5" text-anchor="middle" font-weight="600">Python 3.8+</text>
    <rect x="102" y="0" width="80" height="28" rx="14" fill="#000" opacity="0.3"/>
    <text x="142" y="19" font-family="'Segoe UI', Arial, sans-serif" font-size="13" fill="#aaa" text-anchor="middle" font-weight="600">Flask</text>
    <rect x="194" y="0" width="110" height="28" rx="14" fill="#229ED9" opacity="0.2"/>
    <text x="249" y="19" font-family="'Segoe UI', Arial, sans-serif" font-size="13" fill="#29b6f6" text-anchor="middle" font-weight="600">Telegram API</text>
    <rect x="316" y="0" width="120" height="28" rx="14" fill="#46e" opacity="0.2"/>
    <text x="376" y="19" font-family="'Segoe UI', Arial, sans-serif" font-size="13" fill="#99aaff" text-anchor="middle" font-weight="600">RouterOS API</text>
  </g>
  <text x="1150" y="340" font-family="'Segoe UI', Arial, sans-serif" font-size="14" fill="#29b6f6" opacity="0.6" text-anchor="end" font-weight="600">SamoTech</text>
</svg>